HIERARCHY
ROOT Hips
{
  OFFSET 0 0 0
  CHANNELS 6 Xposition Yposition Zposition Zrotation Yrotation Xrotation
  JOINT LeftThigh
  {
    OFFSET 8.409438 0 -5.917753
    CHANNELS 3 Zrotation Yrotation Xrotation
    JOINT LeftLeg
    {
      OFFSET 0 0 -42.358652
      CHANNELS 3 Zrotation Yrotation Xrotation
      JOINT LeftFoot
      {
        OFFSET 0 0 -39.357303
        CHANNELS 3 Zrotation Yrotation Xrotation
      }
    }
  }
  JOINT RightThigh
  {
    OFFSET -8.409438 0 -5.917753
    CHANNELS 3 Zrotation Yrotation Xrotation
    JOINT RightLeg
    {
      OFFSET 0 0 -42.358652
      CHANNELS 3 Zrotation Yrotation Xrotation
      JOINT RightFoot
      {
        OFFSET 0 0 -39.357303
        CHANNELS 3 Zrotation Yrotation Xrotation
      }
    }
  }
  JOINT SpineLow
  {
    OFFSET 0 0 4.719101
    CHANNELS 3 Zrotation Yrotation Xrotation
    JOINT SpineMid
    {
      OFFSET 0 0 12.899191
      CHANNELS 3 Zrotation Yrotation Xrotation
      JOINT Chest
      {
        OFFSET 0 0 12.899191
        CHANNELS 3 Zrotation Yrotation Xrotation
        JOINT LeftShoulder
        {
          OFFSET 7.550562 1.41573 9.438202
          CHANNELS 3 Zrotation Yrotation Xrotation
          JOINT LeftArm
          {
            OFFSET 9.155056 0 4.247191
            CHANNELS 3 Zrotation Yrotation Xrotation
            JOINT LeftForearm
            {
              OFFSET 0 0 25.771955
              CHANNELS 3 Zrotation Yrotation Xrotation
              JOINT LeftHand
              {
                OFFSET 0 0 25.197169
                CHANNELS 3 Zrotation Yrotation Xrotation
              }
            }
          }
        }
        JOINT RightShoulder
        {
          OFFSET -7.550562 1.41573 9.438202
          CHANNELS 3 Zrotation Yrotation Xrotation
          JOINT RightArm
          {
            OFFSET -9.155056 0 4.247191
            CHANNELS 3 Zrotation Yrotation Xrotation
            JOINT RightForearm
            {
              OFFSET 0 0 -25.771955
              CHANNELS 3 Zrotation Yrotation Xrotation
              JOINT RightHand
              {
                OFFSET 0 0 -25.197169
                CHANNELS 3 Zrotation Yrotation Xrotation
              }
            }
          }
        }
        JOINT Neck
        {
          OFFSET 0 0 15.101124
          CHANNELS 3 Zrotation Yrotation Xrotation
          JOINT Head
          {
            OFFSET 0 0 11.325843
            CHANNELS 3 Zrotation Yrotation Xrotation
            End Site
            {
              OFFSET 0 0 14.157303
            }
          }
        }
      }
    }
  }
}
MOTION
Frames: 11
Frame Time: 0.0
0.0  101.685394  0.0  -4.167929  -19.163046  -99.691579  41.226774  -24.81058  -32.144577  -5.720715  18.063654  47.816247  -6.428165  -1.868534  1.145095  -0.358464  5.970777  19.975278  3.792923  3.159648  18.527122  -0.174274  4.990055  -5.105127  1.043982  -0.569143  3.193645  2.773376  -1.68995  8.704801  2.773376  -1.68995  8.704801  -12.83692  21.040802  -0.61008  -178.17762  65.101405  -135.24028  -39.38011  -29.021329  90.955773  51.201698  -30.881323  6.771978  0.380193  -4.542979  19.484934  98.392459  42.277216  34.291112  -29.23991  25.633844  -106.207883  85.769945  3.731606  38.874302  2.966102  -2.747376  -6.192784  2.196559  -2.090894  -4.630487  
0.0  101.685394  0.0  -4.089883  -19.363777  -99.766625  40.577699  -25.032263  -32.038944  -5.379469  17.96969  47.943313  -6.584283  -1.787803  1.148003  0.385859  5.715346  19.883059  3.092906  3.085967  18.614286  -0.169735  5.13837  -5.017894  1.094394  -0.588671  3.257213  2.906608  -1.752563  8.876428  2.906608  -1.752563  8.876428  -13.09584  20.730451  -0.846451  179.58438  64.423067  -137.684866  -39.73751  -28.313174  91.536118  51.49641  -30.48696  7.072236  -0.661827  -5.023971  18.486255  99.34401  43.568285  34.733497  -29.16963  24.528386  -106.568143  86.078124  3.760089  38.2209  2.863788  -2.603551  -6.543071  2.119867  -1.983639  -4.89438  
0.0  101.685394  0.0  -4.094866  -19.291362  -99.704129  39.686116  -25.234861  -32.002697  -4.996715  17.908185  48.11999  -6.702852  -1.720964  1.128975  0.886531  5.433732  19.762149  2.677804  3.120924  18.634817  -0.329265  5.167878  -4.906358  1.113079  -0.622919  3.277289  2.952454  -1.849337  8.929414  2.952454  -1.849337  8.929414  -13.076429  20.544439  -0.860164  176.677447  63.832797  -140.342647  -40.178249  -27.662331  91.960848  51.840855  -29.986484  7.380226  -0.656459  -5.225603  18.191135  98.974304  45.605579  34.477061  -29.173772  23.547118  -106.802589  86.325633  3.780986  37.561615  2.802476  -2.445789  -6.740388  2.074847  -1.865561  -5.043429  
0.0  101.685394  0.0  -3.918724  -20.267613  -100.082105  39.668315  -25.714968  -31.667753  -4.972093  18.172566  48.011781  -6.671054  -1.464246  1.15772  2.530023  5.162364  20.110795  2.34824  3.1339  18.612914  -0.615196  5.172946  -4.807578  1.265884  -0.649324  3.318687  3.36456  -1.94396  9.036829  3.36456  -1.94396  9.036829  -12.894396  20.414626  -0.659726  174.105516  62.868141  -143.019604  -40.518656  -26.826202  92.610015  52.212233  -29.353274  7.702902  -0.589176  -5.444488  18.095232  98.949701  47.510477  34.408355  -29.246237  22.667463  -106.852478  86.537137  3.798447  36.995474  2.753891  -2.269285  -6.779468  2.04026  -1.732804  -5.073831  
0.0  101.685394  0.0  -3.967466  -20.149204  -99.891023  38.816521  -25.893997  -31.751501  -4.779025  18.390301  48.131651  -6.655701  -1.319268  1.081218  2.724132  4.988762  19.936921  2.170117  3.166292  18.493864  -0.680159  5.250381  -4.673666  1.310324  -0.696974  3.291114  3.480315  -2.078518  8.957825  3.480315  -2.078518  8.957826  -13.01348  20.220533  -0.572776  171.129213  61.909554  -145.84263  -40.910253  -26.016683  93.124688  52.626335  -28.601948  8.022557  -0.602183  -5.714191  17.960044  98.819085  49.471234  34.255394  -29.343054  21.764737  -106.743404  86.782482  3.823037  36.538348  2.632014  -2.106949  -6.803335  1.950609  -1.60978  -5.092962  
0.0  101.685394  0.0  -3.813772  -20.945252  -100.148885  38.84841  -26.278161  -31.5016  -4.802774  18.857194  48.127637  -6.65974  -1.095336  0.895406  3.757053  4.885122  20.234902  2.171175  3.219098  18.252314  -0.684982  5.331495  -4.538644  1.434409  -0.724079  3.316743  3.814389  -2.170607  9.022328  3.814389  -2.170606  9.022327  -12.868555  20.087813  -0.436094  168.610743  60.774356  -148.484453  -41.217034  -25.081158  93.668332  53.090374  -27.835124  8.398111  -0.282913  -5.946384  17.780846  99.01389  51.207077  34.258389  -29.415243  20.776631  -106.492244  87.131097  3.905055  36.174895  2.482619  -1.952207  -6.893726  1.840033  -1.492411  -5.161964  
0.0  101.685394  0.0  -3.863557  -20.803864  -99.975254  38.217862  -26.356874  -31.585696  -4.904997  19.323863  48.13128  -6.511122  -0.934325  0.733842  3.656652  4.879339  20.266297  2.328311  3.259575  17.868014  -0.731123  5.389931  -4.440597  1.430632  -0.769293  3.28997  3.799014  -2.29187  8.946946  3.799014  -2.29187  8.946946  -12.761149  20.02855  -0.34275  166.049245  59.685542  -151.042713  -41.467532  -24.19894  94.112299  53.624572  -27.114242  8.812856  0.086642  -6.18254  17.496965  99.246533  52.836124  34.253129  -29.458614  19.740677  -106.103776  87.545979  4.102027  35.830269  2.578058  -1.7863  -6.855945  1.913627  -1.368878  -5.134115  
0.0  101.685394  0.0  -3.881644  -20.767777  -99.875992  37.892628  -26.346361  -31.62739  -5.104284  19.769864  48.141304  -6.367242  -0.778713  0.544947  3.594109  4.954154  20.479693  2.623848  3.296803  17.357223  -0.879956  5.368232  -4.383446  1.437635  -0.801948  3.265371  3.814726  -2.380465  8.877766  3.814726  -2.380465  8.877765  -13.003972  19.881821  -0.290276  164.223254  58.433498  -153.336933  -41.634658  -23.394849  94.520999  54.166528  -26.494785  9.296537  -0.186912  -6.816612  16.785409  100.840663  53.71925  35.098944  -29.470218  18.646346  -105.637699  87.907524  4.408689  35.412491  2.652845  -1.680033  -6.808095  1.971061  -1.289795  -5.098526  
0.0  101.685394  0.0  -3.900315  -20.578755  -99.713365  37.660669  -26.14316  -31.729682  -5.34973  20.151843  48.177705  -6.261108  -0.748276  0.313573  3.351743  5.112698  20.71028  2.9255  3.318806  16.719523  -0.944309  5.421309  -4.312155  1.449129  -0.821017  3.239355  3.844595  -2.432518  8.805227  3.844595  -2.432518  8.805227  -13.002454  19.8698  -0.092793  162.096493  57.354965  -155.524979  -41.715019  -22.662936  94.93239  54.781034  -25.937362  9.762043  0.167884  -7.26068  16.355199  101.45383  55.029338  35.398853  -29.462991  17.463885  -105.135556  88.168655  4.776352  34.891517  2.720231  -1.625706  -6.765355  2.022329  -1.249602  -5.066558  
0.0  101.685394  0.0  -3.861027  -20.481119  -99.571615  37.753324  -25.801736  -31.822835  -5.570023  20.40298  48.241535  -5.98411  -0.753381  0.243239  3.134994  5.34446  20.959936  3.328817  3.293948  16.067097  -1.144712  5.499874  -4.281748  1.456913  -0.830438  3.205517  3.865936  -2.457304  8.711938  3.865937  -2.457304  8.711938  -12.964955  19.904081  0.149312  160.752337  56.107274  -157.550116  -41.617141  -21.790442  95.540914  55.271818  -25.496928  10.402008  0.570383  -7.685643  15.909268  102.305385  56.145813  35.865801  -29.579133  16.35359  -104.603075  88.501328  4.916666  34.306812  2.856072  -1.570938  -6.693931  2.125012  -1.209689  -5.012922  
0.0  101.685394  0.0  -3.770122  -20.223648  -99.442818  37.897102  -25.286109  -31.866855  -5.727811  20.370889  48.346798  -6.056739  -0.919035  0.111017  2.937374  5.64996  21.260974  3.582024  3.1944  15.370049  -1.302539  5.643647  -4.238302  1.468861  -0.828058  3.175805  3.900015  -2.450666  8.630376  3.900015  -2.450667  8.630377  -12.872484  19.957382  0.320784  158.6255  54.93376  -159.719739  -41.554599  -21.121472  95.978175  55.890256  -24.954785  10.995059  0.974144  -8.037836  15.539752  102.927222  57.303387  36.232208  -29.910115  15.67891  -104.083553  88.767188  4.685653  33.728908  2.929409  -1.522932  -6.651221  2.180655  -1.174277  -4.980957  
